<svg xmlns="http://www.w3.org/2000/svg" xmlns:xlink="http://www.w3.org/1999/xlink" id="e0G9IhiZLEA1" viewBox="0 0 1739 1281" shape-rendering="geometricPrecision" text-rendering="geometricPrecision"><g id="bird" transform="translate(0,0)"><path d="M1318.932739,827.011963c-17.113281,7.195373-34.557495,11.976074-52.456909,14.81958-9.080688,1.442566-18.374145,1.659973-27.586792,2.135315-23.042236,1.188782-45.234619,6.156921-66.92395,13.948669-11.768921,4.227967-22.361817,10.170899-31.211914,18.925293-9.090576,8.992249-15.426392,19.789307-19.834229,31.821228-3.081176,8.410889-6.656494,16.645813-10.178711,24.887757-1.407714,3.293945-3.531738,5.30841-7.731079,3.7229-4.232055-1.597717-2.993652-4.264404-2.28186-7.239868c4.057861-16.964722,8.123047-33.929138,11.972778-50.941895c2.209839-9.765319-.541015-19.017944-3.049072-28.429931-3.578247-13.427674-2.803467-26.664734,6.035767-38.183533c2.943603-3.835937,7.028076-6.796326,10.48059-10.052856-5.692627-.450745-11.828857-1.019165-17.976562-1.410401-49.513428-3.151123-97.995545-11.192871-143.876831-31.03186-23.257019-10.056275-44.335083-23.361145-59.840515-43.98877-10.789307-14.353515-17.249268-30.449341-17.407105-48.617126-.067505-7.774109.558655-15.557434.997132-23.329346.06134-1.086365.855285-2.131348,1.507873-3.658386c17.399536,30.217651,44.459961,47.470947,74.095764,61.564392c28.428833,13.51947,58.65149,21.541443,89.295532,27.77301c17.024537,3.462158,34.405152,5.450867,51.719361,7.139221c19.86499,1.937073,39.820923,3.066773,59.761841,4.055603c15.246338.755921,30.533447.653382,45.795288,1.152222c3.300537.107849,4.109009-1.428955,4.833252-4.147705c5.925659-22.245788,14.745849-43.195801,27.786133-62.305359c14.869873-21.791076,34.81604-38.160034,55.890869-53.464172c14.580566-10.588074,29.436035-20.933655,43.046386-32.687317c16.847901-14.549561,29.830689-32.734802,41.302002-51.65094c15.898682-26.216553,30.640625-53.134491,45.874756-79.753967.793335-1.386078,1.559082-2.787995,3.826294-4.392334c3.340332,8.253113,7.079956,16.371032,9.930542,24.789978c4.685669,13.83905,7.336304,28.053406,8.45398,42.743591c2.331543,30.647034-4.057007,59.476868-15.494019,87.606812-9.427612,23.187683-22.103271,44.580627-37.495727,64.065918-13.58191,17.193237-28.859253,33.08374-43.887452,49.080322-6.158569,6.555603-13.637695,11.868896-20.489135,17.778503-.708374.610901-1.233033,1.434632-2.366822,2.782349c20.391236,3.508789,36.925049,14.760498,55.00708,22.35144c9.135865,3.835266,19.048706,6.427429,28.862427,7.8974c14.64978,2.194153,29.510864,3.050659,44.303955,4.192322c11.685547.901855,23.404541,1.367493,35.107178,2.052978c1.234375.072205,2.458374.319642,3.687256.485779.032348.472901.064819.945862.097168,1.418763-3.74585.688842-7.468018,1.571228-11.241455,2.035339-25.671875,3.156616-50.088013,10.555481-73.184815,22.091736-18.107788,9.044433-34.123291,21.037353-47.699829,36.126526-2.622558,2.914795-5.312744,5.958007-7.091553,9.397277-2.522705,4.877991-5.124389,3.424012-8.189941,1.016297-11.819458-9.283325-19.884155-21.203369-24.821533-35.321961-.216553-.619201-.439453-1.236206-.734131-2.064575-2.12915.932617-4.185791,1.833435-6.619263,2.813782Z" fill="#4a82c3"></path></g><path d="M24.999851,1005c.000002-178.811584-.000145-357.123108.001887-535.434692.000022-1.999512-.439654-4.164093.189283-5.947083.517559-1.467224,2.133558-2.861633,3.607861-3.57901c1.218526-.592895,2.941719-.161926,4.441303-.161957c99.15456-.002075,198.309223.08252,297.463642-.038727c46.937988-.057373,92.369629,7.360047,135.642853,26.113373c25.132385,10.891571,48.025085,25.359253,67.396728,44.763733c26.538574,26.58374,43.242859,58.663452,51.250916,95.353089c4.076843,18.678283,4.922973,37.618164,3.85144,56.539917-2.100586,37.091919-12.864624,71.519958-35.102112,101.638855-15.106262,20.460205-33.76593,37.252929-55.47586,50.74646-34.439148,21.405029-72.263367,33.031066-111.836731,39.89215-2.313965.401184-4.632294.777405-8.081391,1.35492c79.640473,103.105347,158.475708,205.168274,238.10553,308.259826-2.89032.230103-4.577209.478882-6.264526.481202-19.664246.026977-39.329407-.078858-58.992066.096435-3.960388.035279-6.41101-1.437866-8.747802-4.481201-60.636414-78.967895-121.35495-157.872681-182.041657-236.802002-13.699585-17.817566-27.387359-35.644958-40.951599-53.565369-2.695709-3.561401-5.534821-5.356811-10.325317-5.346008-73.990586.166809-147.981659.11499-221.972626.118897-7.13929.000366-7.156227.01593-7.156525,7.079406-.004013,95.15503-.002083,190.31012-.004852,285.465149-.000214,7.437256-.011391,7.446533-7.286675,7.450562-13.331703.007202-26.66341.005249-39.995117.000854-7.704166-.002563-7.714393-.008178-7.71479-7.523315-.003025-57.325195-.00174-114.650269-.001797-172.475464M179.5,835c41.661835,0,83.324951.191589,124.984894-.088867c18.115326-.121948,36.256164-.745239,54.328125-1.979492c24.884033-1.699402,48.895233-7.726807,72.017639-17.044983c27.777954-11.194397,52.168091-27.271546,71.050812-50.888611c28.593261-35.762085,35.675964-77.212647,29.653747-121.132446-6.43872-46.95752-32.352508-81.146973-73.585907-103.934693-37.188598-20.552368-77.851165-28.178039-119.545776-28.648804-83.812744-.946258-167.643677-.283142-251.467102-.278594-6.909905.000366-6.932121.019958-6.932434,6.802032-.004769,103.487793-.00486,206.975525.000328,310.463318.000336,6.708984.024483,6.726074,7.006492,6.727661c30.496392.007019,60.992783.003296,92.489182.003479Z" fill="#3a3a3c"></path><path d="M1343.750977,1070.74939c-20.226075,22.987182-43.318848,42.127807-68.557862,58.659423-39.531616,25.893433-82.658447,42.842286-129.100342,51.722779-30.919677,5.912109-62.156127,7.490722-93.332519,5.600464-79.133911-4.798584-150.452087-31.293946-211.910706-81.816773-66.001648-54.257446-107.991821-123.512512-125.893432-207.229919-6.485047-30.32721-8.586914-61.07312-6.740906-91.856262c4.609802-76.869568,31.080505-145.707764,79.301453-205.809693C840.939941,533.433411,909.40332,490.288757,992.549927,470.66803c20.738281-4.893707,41.753296-8.057739,63.090942-8.763245c9.307007-.307709,18.622193-1.015137,27.920044-.837036c53.615112,1.026794,105.255493,11.613159,154.691773,32.567078c28.661743,12.148498,55.328125,27.701599,79.66687,47.134765c6.103637,4.873474,11.790039,10.268372,17.691772,15.396546c2.579956,2.241821,2.950073,4.333252.608765,7.231872-10.501831,13.003174-22.963623,23.472351-38.168091,30.588928-3.130737,1.465394-5.52771,1.048951-8.059448-1.424194-35.453492-34.630737-77.609375-57.560852-125.082398-70.951721-20.323608-5.732788-41.000366-9.858917-62.19812-10.620544-12.29541-.441834-24.642822-1.475953-36.890747-.821595-34.360107,1.835633-67.696838,8.812256-99.705139,21.760681-30.437134,12.312806-58.397888,28.834778-83.370545,50.068299-27.551513,23.426269-50.52124,50.799804-68.515625,82.330505-17.876586,31.324219-30.210754,64.652954-36.702819,100.050232-2.355408,12.842468-3.347718,25.962647-4.439148,38.999878-.802979,9.591614-1.344055,19.276428-.985901,28.881836c1.587585,42.57312,10.241638,83.564026,27.768982,122.60498c12.574157,28.008179,28.807007,53.641846,48.717956,76.90326c24.157349,28.222656,52.681641,51.191772,85.22052,69.157348c30.59729,16.893799,63.185486,28.109009,97.657593,33.606079c11.452393,1.826172,23.108032,2.393311,34.67749,3.46399c18.983155,1.75708,37.898072.2583,56.673096-2.208741c29.34314-3.855835,57.617554-11.869262,84.635986-24.06311c38.63147-17.435059,72.223023-41.917358,100.514038-73.40271c34.495118-38.390015,57.824707-82.848877,69.892579-133.056518c2.67395-11.125611,3.668212-22.659424,6.434814-33.756287c1.181396-4.738586,4.441162-9.22583,7.592041-13.157715c10.325684-12.885925,23.267578-22.276123,39.126587-27.326721c6.302612-2.007202,7.12915-1.472962,6.951782,5.003845-.784424,28.639771-4.811889,56.837219-12.318359,84.485779-12.550293,46.225342-33.126831,88.55719-62.316284,126.591797-6.154419,8.019165-12.87146,15.606567-19.579956,23.643799Z" fill="#3a3a3c"></path><path d="M1612,820c0-116.826538-.005981-233.153015.009155-349.479523.001465-11.534515-1.154907-10.623169,10.886719-10.640381c13.165894-.018829,26.334351.145203,39.496216-.083252c4.418823-.07666,5.712158,1.453522,5.685913,5.784333C1667.917236,492.078644,1668,518.577576,1668,545.07605c.000244,210.320984.003784,420.641907-.011475,630.96289-.000732,9.819703.96875,8.921753-8.769653,8.950928-13.332397.040039-26.665039.015747-39.997559.007691-7.199829-.004273-7.215942-.014771-7.218017-7.018555-.007446-25.665161-.003296-51.330322-.003296-76.995483c0-93.494507,0-186.989014,0-280.983521Z" fill="#3a3a3c"></path><path d="M64,346.001007c-12.79483,0-25.089661,0-37.746349,0-.096381-1.958374-.244339-3.566009-.244671-5.173645-.011877-57.631348.053571-115.262924-.12121-172.893753-.015263-5.032639,1.692562-6.073502,6.31278-6.027756c21.318184.211136,42.669598-.631805,63.953487.248154c40.874741,1.689957,78.556855,27.056442,87.784485,70.257187c5.490464,25.704498,2.558609,50.501343-12.110641,72.795349-13.07901,19.877167-32.096634,31.739044-54.97802,37.852936C99.555908,347.680481,81.968071,345.401733,64,346.001007m55.604912-18.915161c12.178154-3.664551,22.73539-10.196777,31.110313-19.60025c19.443009-21.830841,23.690033-47.60727,16.450241-75.071884-9.618011-36.486527-40.874778-54.859513-74.655975-56.30069-15.460587-.659561-30.972668-.118942-46.461369-.101898-1.596794.001754-3.193435.145477-4.661434.217056c0,52.171814,0,103.861145,0,155.771088c15.529663,0,30.677468-.184296,45.818276.062103c10.85804.176727,21.385193-1.329407,32.399948-4.975525Z" fill="#4a82c3"></path><path d="M652.312866,331.301697c-13.696167,9.133575-28.346496,14.751587-44.326111,16.76947-21.736877,2.744873-42.862121,1.135254-62.570434-9.446259-24.22937-13.00888-38.672028-33.668396-44.190125-60.088684-7.144836-34.209015-.293152-65.520691,23.768311-91.712799c13.680725-14.892196,30.858215-24.114715,51.1698-26.841385c28.255798-3.793121,54.275634,1.466675,77.165954,19.214447c1.687622,1.308503,3.191345,2.854264,5.148682,4.622178-3.386292,3.908035-6.575134,7.588211-9.078308,10.477111-9.61676-5.524063-18.168579-11.844833-27.723877-15.636932-20.988159-8.32933-42.367188-8.40715-63.188111,1.285553-13.7901,6.419647-24.005249,16.715698-31.840942,29.723129-10.085388,16.741867-13.185364,34.995285-11.52008,53.985276c2.694091,30.724426,19.173706,58.81195,52.903991,68.512207c29.11676,8.373504,55.650269,2.085327,79.943848-15.261872.923706-.659576,1.923767-2.004028,1.931335-3.036377.120606-16.449554.0849-32.900238.0849-49.73352-20.727295,0-40.989807,0-61.978637,0c0-3.955048-.476441-7.641846.242309-11.07872.274658-1.312958,3.260437-2.86319,5.054016-2.919373c9.321533-.29187,18.657166-.136688,27.987854-.136795c13.983155-.000168,27.966309-.000015,42.704346-.000015c0,1.980728.000061,3.731918.000061,5.483124c0,20.327652-.107788,40.656326.086792,60.982101.041138,4.298615-.441467,7.656403-4.718445,9.791657-2.446899,1.221588-4.518677,3.194549-7.057129,5.046478Z" fill="#4a82c2"></path><path d="M1282,295.002014c-6.495728.000244-12.508789-.253357-18.476807.153961-1.813964.123841-4.368042,1.663422-5.115356,3.247193-6.965332,14.760925-13.552857,29.699798-20.44458,44.49646-.63147,1.355865-2.543213,2.821075-3.983765,2.960601-4.117431.398804-8.29834.14029-13.210571.14029c1.449829-3.222931,2.664062-5.997498,3.938354-8.744202c26.474854-57.062378,52.993042-114.104782,79.357544-171.218063c1.812622-3.927124,4.184937-4.883042,8.317871-5.239075c6.393677-.550766,9.356446,1.61322,12.081788,7.553452c26.626953,58.036041,53.660156,115.88562,80.559936,173.796569.458496.987214.692993,2.078522,1.265991,3.840668-5.264282,0-10.033691.236786-14.749878-.158874-1.25061-.104889-2.786987-1.947235-3.431396-3.342987-6.721314-14.56009-13.405029-29.140717-19.798218-43.846528-1.29541-2.979644-2.830688-3.720611-5.867798-3.707244-26.647339.117279-53.295288.06784-80.443115.067779m7.075684-63.347458c-7.409913,16.267563-14.819825,32.535141-22.407471,49.192887c31.432251,0,62.051514,0,93.299194,0-15.520508-33.83194-30.874878-67.30156-46.555908-101.483506-8.167358,17.634385-16.043579,34.640244-24.335815,52.290619Z" fill="#4a81c2"></path><path d="M1073.001099,175.999954c-6.134034,0-11.768311,0-17.785035,0c0,56.650177,0,112.913773,0,169.588303-5.085205,0-9.806518,0-15.098632,0c0-56.276581,0-112.660172,0-169.43187-21.490662,0-42.423706,0-64.10437,0c0-3.95787-.240296-7.568863.142334-11.11261.11914-1.104187,1.767089-2.376754,3.002685-2.927948c1.113403-.496719,2.620117-.115249,3.953369-.115264c43.164673-.000611,86.329468-.000519,129.494141-.000534c1.957886,0,3.915771.000015,6.130737.000015c0,4.721985,0,8.988632,0,13.999908-15.05957,0-30.147583,0-45.735229,0Z" fill="#4a82c3"></path><path d="M1561.000488,168.118683c0,54.764603,0,109.044342,0,163.705566c36.026367,0,71.619507,0,107.605591,0c0,4.753205,0,9.133942,0,13.851654-40.651489,0-81.358642,0-122.589111,0c0-1.937805,0-3.72171,0-5.505584c0-57.15271-.000855-114.305436.00061-171.458161.000122-6.709213.005249-6.709549,6.922608-6.712692c2.472778-.001114,4.945434-.000168,8.060302-.000168c0,2.10025,0,3.867386,0,6.119385Z" fill="#4a82c3"></path><path d="M349.999969,306c0,13.461273,0,26.422546,0,39.690186-5.085021,0-9.798156,0-14.999908,0c0-1.977723,0-3.765076,0-5.55243c0-57.132415-.00058-114.264816.000671-171.397232.000122-6.736648.00467-6.737014,6.891907-6.74028c2.478272-.001175,4.956543-.000183,8.10733-.000183c0,48.035492,0,95.767731,0,143.999939Z" fill="#4a82c3"></path><path d="M832,200c0,48.778671,0,97.057343,0,145.667603-5.038574,0-9.75177,0-14.999939,0c0-1.902955.000061-3.684632.000061-5.466309c0-57.132416-.00061-114.264832.000488-171.397247.000183-6.799637.004151-6.800034,6.828553-6.803757c2.482666-.001358,4.965332-.000229,8.170837-.000229c0,12.664719,0,25.082321,0,37.999939Z" fill="#4a82c3"></path></svg>